<?xml version="1.0" standalone="no"?>
<!DOCTYPE svg PUBLIC "-//W3C//DTD SVG 20010904//EN"
        "http://www.w3.org/TR/2001/REC-SVG-20010904/DTD/svg10.dtd">
<svg version="1.0" xmlns="http://www.w3.org/2000/svg"
     width="720.000000pt" height="720.000000pt" viewBox="0 0 720.000000 720.000000"
     preserveAspectRatio="xMidYMid meet">

    <g transform="translate(0.000000,720.000000) scale(0.100000,-0.100000)"
       fill="#000000" stroke="none">
        <path d="M3295 7178 c-5 -26 -145 -824 -145 -831 0 -3 -21 -8 -47 -12 -75 -11
-341 -80 -415 -109 l-68 -25 -207 247 c-114 136 -238 284 -276 330 -38 45 -73
82 -78 82 -8 0 -456 -255 -506 -288 -9 -6 27 -116 136 -414 l148 -407 -102
-91 c-57 -51 -144 -138 -195 -195 l-92 -103 -67 25 c-36 14 -212 78 -391 143
-179 65 -332 121 -340 124 -12 5 -50 -53 -163 -248 -81 -140 -147 -259 -147
-264 0 -5 148 -134 329 -285 l329 -276 -25 -68 c-28 -78 -98 -344 -108 -415
-4 -27 -9 -48 -12 -48 -8 0 -805 -140 -831 -145 l-22 -5 0 -300 0 -300 23 -5
c25 -5 822 -145 830 -145 3 0 8 -21 12 -47 10 -72 80 -338 108 -416 l25 -68
-329 -276 c-181 -151 -329 -280 -329 -285 0 -5 66 -124 147 -264 113 -195 151
-253 163 -248 8 3 161 59 340 124 179 65 355 129 391 143 l67 25 92 -103 c51
-57 138 -144 195 -195 l102 -91 -148 -407 c-109 -298 -145 -408 -136 -414 50
-33 498 -288 506 -288 5 0 40 37 78 83 38 45 162 193 276 329 l207 247 68 -25
c74 -29 340 -98 415 -109 26 -4 47 -9 47 -12 0 -7 140 -805 145 -831 l5 -22
299 0 299 0 6 28 c6 27 146 821 146 827 0 1 21 6 48 10 74 11 340 80 415 109
l67 25 276 -329 c152 -182 280 -330 285 -330 8 0 456 255 506 288 9 6 -24 107
-123 377 -74 204 -141 386 -148 406 l-15 36 99 87 c55 48 143 136 196 195 l96
108 406 -148 c295 -107 409 -145 414 -136 31 47 288 498 288 505 0 9 -24 30
-411 354 l-245 206 38 118 c36 110 98 361 98 398 0 9 2 16 4 16 7 0 810 140
834 145 l22 5 0 300 0 300 -22 5 c-13 3 -205 37 -428 75 -222 39 -405 72 -405
73 -1 1 -14 62 -29 136 -15 73 -47 192 -70 264 l-42 129 245 206 c387 324 411
345 411 354 0 7 -257 458 -288 505 -5 9 -119 -29 -414 -136 l-406 -148 -96
108 c-53 59 -141 147 -196 195 l-99 87 15 36 c7 20 74 202 148 406 99 270 132
371 123 377 -50 33 -498 288 -506 288 -5 0 -133 -148 -285 -330 l-276 -329
-67 25 c-75 29 -341 98 -415 109 -27 4 -48 9 -48 10 0 6 -140 800 -146 828
l-6 27 -299 0 -299 0 -5 -22z m554 -1464 c812 -94 1503 -653 1766 -1426 342
-1009 -104 -2105 -1052 -2586 -822 -417 -1817 -259 -2468 393 -170 169 -294
343 -404 566 -404 814 -241 1800 404 2444 460 461 1105 685 1754 609z"/>
    </g>
</svg>
